<svg width="48" height="49" viewBox="0 0 48 49" fill="none" xmlns="http://www.w3.org/2000/svg">
<path d="M31.5 30.5C31.1022 30.5 30.7206 30.658 30.4393 30.9393C30.158 31.2206 30 31.6022 30 32C30 32.3978 30.158 32.7794 30.4393 33.0607C30.7206 33.342 31.1022 33.5 31.5 33.5H37.5C37.8978 33.5 38.2794 33.342 38.5607 33.0607C38.842 32.7794 39 32.3978 39 32C39 31.6022 38.842 31.2206 38.5607 30.9393C38.2794 30.658 37.8978 30.5 37.5 30.5H31.5Z" fill="#401E09"/>
<path d="M3 15.5C3 13.9087 3.63214 12.3826 4.75736 11.2574C5.88258 10.1321 7.4087 9.5 9 9.5H39C40.5913 9.5 42.1174 10.1321 43.2426 11.2574C44.3679 12.3826 45 13.9087 45 15.5V33.5C45 35.0913 44.3679 36.6174 43.2426 37.7426C42.1174 38.8679 40.5913 39.5 39 39.5H9C7.4087 39.5 5.88258 38.8679 4.75736 37.7426C3.63214 36.6174 3 35.0913 3 33.5V15.5ZM42 15.5C42 14.7044 41.6839 13.9413 41.1213 13.3787C40.5587 12.8161 39.7957 12.5 39 12.5H9C8.20435 12.5 7.44129 12.8161 6.87868 13.3787C6.31607 13.9413 6 14.7044 6 15.5V18.5H42V15.5ZM6 33.5C6 34.2956 6.31607 35.0587 6.87868 35.6213C7.44129 36.1839 8.20435 36.5 9 36.5H39C39.7957 36.5 40.5587 36.1839 41.1213 35.6213C41.6839 35.0587 42 34.2956 42 33.5V21.5H6V33.5Z" fill="#401E09"/>
</svg>
