<svg width="48" height="49" viewBox="0 0 48 49" fill="none" xmlns="http://www.w3.org/2000/svg">
<path d="M25.4396 22.1001C24.4796 21.8601 23.5196 21.3801 22.7996 20.6601C22.0796 20.4201 21.8396 19.7001 21.8396 19.2201C21.8396 18.7401 22.0796 18.0201 22.5596 17.7801C23.2796 17.3001 23.9996 16.8201 24.7196 17.0601C26.1596 17.0601 27.3596 17.7801 28.0796 18.7401L30.2396 15.8601C29.5196 15.1401 28.7996 14.6601 28.0796 14.1801C27.3596 13.7001 26.3996 13.4601 25.4396 13.4601V10.1001H22.5596V13.4601C21.3596 13.7001 20.1596 14.4201 19.1996 15.3801C18.2396 16.5801 17.5196 18.0201 17.7596 19.4601C17.7596 20.9001 18.2396 22.3401 19.1996 23.3001C20.3996 24.5001 22.0796 25.2201 23.5196 25.9401C24.2396 26.1801 25.1996 26.6601 25.9196 27.1401C26.3996 27.6201 26.6396 28.3401 26.6396 29.0601C26.6396 29.7801 26.3996 30.5001 25.9196 31.2201C25.1996 31.9401 24.2396 32.1801 23.5196 32.1801C22.5596 32.1801 21.3596 31.9401 20.6396 31.2201C19.9196 30.7401 19.1996 30.0201 18.7196 29.3001L16.3196 31.9401C17.0396 32.9001 17.7596 33.6201 18.7196 34.3401C19.9196 35.0601 21.3596 35.7801 22.7996 35.7801V38.9001H25.4396V35.3001C26.8796 35.0601 28.0796 34.3401 29.0396 33.3801C30.2396 32.1801 30.9596 30.2601 30.9596 28.5801C30.9596 27.1401 30.4796 25.4601 29.2796 24.5001C28.0796 23.3001 26.8796 22.5801 25.4396 22.1001ZM23.9996 5.30011C13.4396 5.30011 4.79956 13.9401 4.79956 24.5001C4.79956 35.0601 13.4396 43.7001 23.9996 43.7001C34.5596 43.7001 43.1996 35.0601 43.1996 24.5001C43.1996 13.9401 34.5596 5.30011 23.9996 5.30011ZM23.9996 41.0601C14.8796 41.0601 7.43956 33.6201 7.43956 24.5001C7.43956 15.3801 14.8796 7.94011 23.9996 7.94011C33.1196 7.94011 40.5596 15.3801 40.5596 24.5001C40.5596 33.6201 33.1196 41.0601 23.9996 41.0601Z" fill="#401E09"/>
</svg>
