<svg width="48" height="49" viewBox="0 0 48 49" fill="none" xmlns="http://www.w3.org/2000/svg">
<path d="M17.9993 5.3938C17.6811 5.3938 17.3758 5.52023 17.1508 5.74527C16.9258 5.97031 16.7993 6.27554 16.7993 6.5938V12.5002H10.7993C10.4811 12.5002 10.1758 12.6266 9.9508 12.8517C9.72576 13.0767 9.59933 13.3819 9.59933 13.7002V23.4514L5.67773 24.5434C5.50946 24.5903 5.35345 24.6733 5.22061 24.7868C5.08776 24.9002 4.98128 25.0412 4.9086 25.2001C4.83593 25.3589 4.7988 25.5317 4.79983 25.7064C4.80085 25.8811 4.83999 26.0534 4.91453 26.2114L9.23933 35.401C9.76744 34.764 10.4989 34.3283 11.3105 34.1674L7.68893 26.4754L22.7033 22.2898C23.5465 22.0548 24.4378 22.0548 25.2809 22.2898L40.2977 26.4706L36.6017 34.1506C37.4148 34.2857 38.157 34.6957 38.7041 35.3122L43.0841 26.221C43.1604 26.0627 43.201 25.8896 43.2031 25.714C43.2051 25.5383 43.1686 25.3643 43.096 25.2043C43.0235 25.0443 42.9167 24.9021 42.7831 24.788C42.6496 24.6738 42.4927 24.5903 42.3233 24.5434L38.3993 23.4514V13.7002C38.3993 13.3819 38.2729 13.0767 38.0479 12.8517C37.8228 12.6266 37.5176 12.5002 37.1993 12.5002H31.1993V6.5962C31.1993 6.27794 31.0729 5.97271 30.8479 5.74767C30.6228 5.52263 30.3176 5.3962 29.9993 5.3962H17.9993V5.3938ZM28.7993 12.5002H19.1993V7.7962H28.7993V12.5002ZM35.9993 14.9002V22.7842L25.9217 19.9762C24.6578 19.6241 23.3217 19.6241 22.0577 19.9762L11.9993 22.7818V14.9002H35.9993Z" fill="#401E09"/>
<path d="M37.1708 37.436L37.1636 37.412C37.1018 37.1638 36.9624 36.9417 36.7655 36.7783C36.5687 36.6148 36.3248 36.5186 36.0694 36.5036C35.814 36.4886 35.5605 36.5556 35.3459 36.6948C35.1312 36.8341 34.9667 37.0383 34.8764 37.2776L34.8644 37.304C34.8548 37.328 34.8404 37.3712 34.8164 37.424C34.5106 38.112 34.1169 38.7574 33.6452 39.344C32.786 40.4 31.5932 41.3 29.9996 41.3C28.406 41.3 27.2108 40.3976 26.3468 39.3416C25.846 38.7209 25.4326 38.0345 25.118 37.3016L25.106 37.2728C25.0186 37.0455 24.8642 36.8502 24.6632 36.7127C24.4622 36.5752 24.2242 36.5022 23.9806 36.5032C23.7371 36.5042 23.4997 36.5793 23.2999 36.7185C23.1001 36.8577 22.9473 37.0544 22.862 37.2824L22.85 37.3064C22.8404 37.3304 22.826 37.3736 22.802 37.4264C22.498 38.1135 22.1059 38.7582 21.6356 39.344C20.7812 40.4 19.5932 41.3 17.9996 41.3C16.406 41.3 15.2156 40.4 14.3564 39.344C13.8569 38.7233 13.445 38.0369 13.1324 37.304L13.1228 37.28V37.2752C13.0326 37.0359 12.8683 36.8315 12.6539 36.6921C12.4394 36.5527 12.186 36.4854 11.9306 36.5002C11.6752 36.5149 11.4313 36.6109 11.2343 36.774C11.0373 36.9372 10.8976 37.1591 10.8356 37.4072L10.8308 37.4264L10.7972 37.5392C10.578 38.1999 10.2548 38.8214 9.83956 39.38C9.10276 40.3616 7.92916 41.3 5.99956 41.3C5.6813 41.3 5.37608 41.4265 5.15103 41.6515C4.92599 41.8766 4.79956 42.1818 4.79956 42.5C4.79956 42.8183 4.92599 43.1235 5.15103 43.3486C5.37608 43.5736 5.6813 43.7 5.99956 43.7C8.86996 43.7 10.6964 42.2384 11.7596 40.82C11.8796 40.6568 11.9948 40.496 12.0956 40.3352C12.218 40.508 12.35 40.6808 12.494 40.856C13.5836 42.2 15.3932 43.7 17.9996 43.7C20.606 43.7 22.4108 42.2 23.5004 40.856C23.6804 40.6328 23.8436 40.412 23.99 40.196C24.1412 40.412 24.3068 40.6352 24.4868 40.8584C25.5836 42.2024 27.3932 43.7 29.9996 43.7C32.606 43.7 34.4156 42.2 35.5052 40.856C35.6444 40.688 35.774 40.5152 35.894 40.3472C35.9972 40.5104 36.11 40.6736 36.23 40.8368C37.2956 42.2672 39.1268 43.7336 42.014 43.7C42.1715 43.6981 42.3272 43.6652 42.4721 43.6032C42.6169 43.5411 42.7482 43.4512 42.8583 43.3384C42.9684 43.2256 43.0552 43.0923 43.1137 42.946C43.1723 42.7996 43.2015 42.6432 43.1996 42.4856C43.1977 42.3281 43.1648 42.1724 43.1027 42.0275C43.0407 41.8827 42.9507 41.7514 42.8379 41.6413C42.7251 41.5312 42.5918 41.4444 42.4455 41.3859C42.2992 41.3273 42.1427 41.2981 41.9852 41.3C40.058 41.324 38.8892 40.388 38.1572 39.404C37.7421 38.8408 37.4204 38.2144 37.2044 37.5488L37.1708 37.4336V37.436Z" fill="#401E09"/>
</svg>
